# Blender v2.76 (sub 0) OBJ File: 'tank_textured.blend'
# www.blender.org
mtllib tank_textured.mtl
o Filled_Tank
v 1.500000 -0.125000 0.562500
v 1.125000 0.125000 0.333333
v -1.125000 0.125000 0.333333
v -1.500000 -0.125000 0.562500
v 1.125000 -0.500000 0.333333
v -1.125000 -0.500000 0.333333
v -1.500000 -0.125000 -0.562500
v -1.125000 -0.500000 -0.333333
v -1.125000 0.125000 -0.333333
v 1.125000 0.125000 -0.333333
v 1.500000 -0.125000 -0.562500
v 1.125000 -0.500000 -0.333333
v 0.750000 0.500000 0.333333
v 0.750000 0.500000 -0.333333
v -1.125000 0.350000 0.083333
v -1.125000 0.350000 -0.083333
v -1.125000 0.286364 -0.083333
v -1.125000 0.286364 0.083333
v 0.000000 0.350000 -0.083333
v -0.318182 0.286364 -0.083333
v -0.318182 0.286364 0.083333
v 0.000000 0.350000 0.083333
vt 0.294994 0.830165
vt 0.234903 0.733244
vt 0.234903 0.110621
vt 0.294994 0.000000
vt 0.698991 0.729946
vt 0.589989 0.834224
vt 0.589989 0.000000
vt 0.698991 0.104278
vt 0.362496 1.000000
vt 0.294994 0.900951
vt 0.362496 0.729946
vt 0.807994 0.689394
vt 0.906326 0.625668
vt 0.906326 0.938502
vt 0.060091 0.110621
vt 0.000000 0.000000
vt 0.060091 0.733244
vt 0.000000 0.830165
vt 0.355086 0.000000
vt 0.529897 0.000000
vt 0.529897 0.625668
vt 0.355086 0.625668
vt 0.807994 0.000000
vt 0.807994 0.834224
vt 0.589989 0.729946
vt 0.294994 0.729946
vt 1.000000 0.625668
vt 0.903997 0.521390
vt 1.000000 0.000000
vt 0.807994 0.104278
vt 0.903997 0.000000
vt 0.903997 0.625668
vt 0.060091 0.639749
vt 0.234903 0.639749
vt 0.406199 0.776292
vt 0.406199 0.729946
vt 0.422885 0.729946
vt 0.422885 0.776292
vt 0.950029 0.625668
vt 0.966320 0.714147
vt 0.966320 0.938502
vt 0.950029 0.938502
vt 0.362496 0.954302
vt 0.406199 0.954302
vt 0.982611 0.625668
vt 0.982611 0.938503
vt 0.906326 0.936980
vt 0.950029 0.936980
vn 0.000000 0.675700 0.737200
vn 0.000000 -0.521500 0.853300
vn -0.707100 -0.707100 0.000000
vn -0.554700 0.832100 0.000000
vn 0.000000 0.675700 -0.737200
vn 0.000000 -1.000000 0.000000
vn 0.000000 -0.521400 -0.853300
vn 0.707100 -0.707100 0.000000
vn 0.554700 0.832100 0.000000
vn 0.000000 -0.000000 1.000000
vn 0.000000 0.000000 -1.000000
vn 0.707100 0.707100 0.000000
vn -0.196100 0.980600 0.000000
vn -1.000000 0.000000 0.000000
vn 0.000000 1.000000 0.000000
usemtl Material.001
s off
f 1/1/1 2/2/1 3/3/1
f 3/3/1 4/4/1 1/1/1
f 5/5/2 1/6/2 4/7/2
f 4/7/2 6/8/2 5/5/2
f 7/9/3 8/10/3 6/11/3
f 6/12/3 4/13/3 7/14/3
f 4/4/4 3/3/4 9/15/4
f 9/15/4 7/16/4 4/4/4
f 10/17/5 11/18/5 7/16/5
f 7/16/5 9/15/5 10/17/5
f 6/19/6 8/20/6 12/21/6
f 12/21/6 5/22/6 6/19/6
f 8/8/7 7/23/7 11/24/7
f 11/24/7 12/5/7 8/8/7
f 5/22/8 12/21/8 11/25/8
f 11/25/8 1/26/8 5/22/8
f 2/2/9 1/1/9 11/18/9
f 11/18/9 10/17/9 2/2/9
f 2/27/10 13/28/10 3/29/10
f 14/30/11 10/31/11 9/32/11
f 14/33/12 13/34/12 2/2/12
f 2/2/12 10/17/12 14/33/12
f 13/34/13 14/33/13 9/15/13
f 9/15/13 3/3/13 13/34/13
f 15/35/14 16/36/14 17/37/14
f 17/37/14 18/38/14 15/35/14
f 19/39/11 20/40/11 17/41/11
f 17/41/11 16/42/11 19/39/11
f 17/43/6 20/11/6 21/36/6
f 21/36/6 18/44/6 17/43/6
f 22/45/10 15/46/10 18/41/10
f 18/41/10 21/40/10 22/45/10
f 15/47/15 22/13/15 19/39/15
f 19/39/15 16/48/15 15/47/15
